<?xml version="1.0" encoding="utf-8"?><!-- Uploaded to: SVG Repo, www.svgrepo.com, Generator: SVG Repo Mixer Tools -->
<svg fill="#022449" width="800px" height="800px" viewBox="0 0 24 24" id="cloud-alert" data-name="Flat Color" xmlns="http://www.w3.org/2000/svg" class="icon flat-color"><path id="secondary" d="M13.5,19.5A1.5,1.5,0,1,1,12,18,1.5,1.5,0,0,1,13.5,19.5ZM13,15V12a1,1,0,0,0-2,0v3a1,1,0,0,0,2,0Z" style="fill: rgb(44, 169, 188);"></path><path id="primary" d="M21.76,9.44A5,5,0,0,0,17.32,6a4.56,4.56,0,0,0-.83,0A6,6,0,0,0,13,4.08a5.91,5.91,0,0,0-4.46,1A6,6,0,0,0,6.37,8a4.07,4.07,0,0,0-2,.31A4,4,0,0,0,6,16h4V12a2,2,0,0,1,2-2h0a2,2,0,0,1,2,2v4h2.91a6.15,6.15,0,0,0,2.21-.46A5,5,0,0,0,21.76,9.44Z" style="fill: rgb(0, 0, 0);"></path></svg>